<svg width="40" height="42" viewBox="0 0 40 42" fill="none" xmlns="http://www.w3.org/2000/svg">
<path fill-rule="evenodd" clip-rule="evenodd" d="M12 2V6H1C0.447715 6 0 6.44772 0 7V11C0 11.5523 0.447715 12 1 12H25C25.5523 12 26 11.5523 26 11V7C26 6.44772 25.5523 6 25 6H14V1C14 0.447715 13.5523 0 13 0H5C4.44772 0 4 0.447715 4 1C4 1.55228 4.44772 2 5 2H12ZM2.35646 14H23.6438L22.8524 20.5292C18.8691 21.9165 16 25.898 16 30.875C16 34.3452 17.4054 37.8671 19.4968 40.3878C18.5783 41.384 17.2638 42 15.8193 42H10.1809C7.6522 42 5.52155 40.112 5.21726 37.6017L2.35646 14ZM28.0154 22.6048C28.2169 20.0281 30.3716 18 33 18C33.5523 18 34 18.4477 34 19C34 19.5523 33.5523 20 33 20C31.4868 20 30.2352 21.1204 30.0296 22.5768C30.6423 22.2013 31.3041 22 32 22C36.1487 22 40 25.481 40 30.875C40 36.4724 35.7619 42 32 42C30.8934 42 29.8718 41.6946 29 41.0896C28.1282 41.6946 27.1066 42 26 42C22.2381 42 18 36.4724 18 30.875C18 25.481 21.8513 22 26 22C26.713 22 27.3902 22.2113 28.0154 22.6048Z" fill="#C86DD7"/>
</svg>
