<svg width="42" height="40" viewBox="0 0 42 40" fill="none" xmlns="http://www.w3.org/2000/svg">
<path fill-rule="evenodd" clip-rule="evenodd" d="M4.0001 8C1.79091 8 0 6.20914 0 4C0 1.79086 1.79091 0 4.0001 0C6.20929 0 8.0002 1.79086 8.0002 4C8.0002 6.20914 6.20929 8 4.0001 8ZM37.0009 40C38.6578 40 40.001 38.6569 40.001 37C40.001 35.3431 38.6578 34 37.0009 34C35.344 34 34.0009 35.3431 34.0009 37C34.0009 38.6569 35.344 40 37.0009 40ZM6.11565 19.158C6.67721 14.6537 9.26869 10.4567 13.5028 8.01212C17.883 5.48331 23.0084 5.41456 27.2791 7.37717C34.3972 5.52781 39.9133 5.36295 41.4352 7.98338C44.1338 12.6298 36.8844 21.2131 25.6172 27.6798C14.3636 34.1387 3.28885 36.0833 0.606785 31.4653C-1.16651 28.412 1.04364 23.6143 5.97363 19.0006L6.11565 19.158ZM2.32829 30.4285C1.3202 28.6927 2.66005 25.3611 6.02063 21.7993C6.14046 24.0873 6.78815 26.3822 8.01232 28.5025C8.2878 28.9796 8.58554 29.4359 8.90345 29.8708C12.5865 29.2501 18.0099 27.3766 23.3629 24.2861C28.3071 21.4317 32.3822 18.0061 34.8503 15.2309C34.6051 14.6446 34.3199 14.0674 33.9937 13.5025C32.9074 11.621 31.475 10.0639 29.8234 8.86509C34.9737 7.75607 38.9859 7.76698 39.7137 9.02019C41.5496 12.1813 34.9661 19.9762 24.6351 25.9055C14.2905 31.8427 4.18066 33.6179 2.32829 30.4285ZM35.9104 22.6786C33.2704 25.0459 30.0305 27.3649 26.363 29.4823C22.3532 31.7973 18.3902 33.5492 14.7602 34.6431C19.0242 36.5901 24.1344 36.5152 28.5032 33.9929C32.7901 31.5179 35.3932 27.2465 35.9104 22.6786Z" fill="#C86DD7"/>
</svg>
