<svg width="42" height="42" viewBox="0 0 42 42" fill="none" xmlns="http://www.w3.org/2000/svg">
<path fill-rule="evenodd" clip-rule="evenodd" d="M6 15C6 20.5569 9.02172 25.4081 13.5117 28H13C5.8203 28 0 33.8203 0 41C0 41.5523 0.447715 42 1 42H41C41.5523 42 42 41.5523 42 41C42 33.8203 36.1797 28 29 28H28.4883C32.9783 25.4081 36 20.5569 36 15C36 6.71573 29.2843 0 21 0C12.7157 0 6 6.71573 6 15ZM6 15C6 20.1206 12.7889 24 21 24C29.2111 24 36 20.1206 36 15C36 9.87939 29.2111 6 21 6C12.7889 6 6 9.87939 6 15ZM10 36C11.1046 36 12 35.1046 12 34C12 32.8954 11.1046 32 10 32C8.89543 32 8 32.8954 8 34C8 35.1046 8.89543 36 10 36ZM18 34C18 35.1046 17.1046 36 16 36C14.8954 36 14 35.1046 14 34C14 32.8954 14.8954 32 16 32C17.1046 32 18 32.8954 18 34ZM23 36H31C31.5523 36 32 35.5523 32 35C32 34.4477 31.5523 34 31 34H23C22.4477 34 22 34.4477 22 35C22 35.5523 22.4477 36 23 36ZM34 15C34 18.7159 28.2529 22 21 22C13.7471 22 8 18.7159 8 15C8 11.2841 13.7471 8 21 8C28.2529 8 34 11.2841 34 15Z" fill="#C86DD7"/>
</svg>
