<svg width="16" height="24" viewBox="0 0 16 24" fill="none" xmlns="http://www.w3.org/2000/svg">
<path fill-rule="evenodd" clip-rule="evenodd" d="M8 0C3.802 0 0 3.403 0 7.602C0 11.3906 2.82531 15.8421 6.70677 21.9576L6.70681 21.9577C7.12628 22.6186 7.55809 23.299 8 24C8.44177 23.2992 8.87344 22.619 9.29279 21.9583L9.29323 21.9576C13.1747 15.8421 16 11.3906 16 7.602C16 3.403 12.199 0 8 0ZM8 2C11.196 2 14 4.618 14 7.602C14 10.695 11.507 14.734 8 20.263C4.493 14.734 2 10.695 2 7.602C2 4.618 4.804 2 8 2ZM5 8C5 9.657 6.343 11 8 11C9.657 11 11 9.657 11 8C11 6.343 9.657 5 8 5C6.343 5 5 6.343 5 8Z" fill="#FFC300"/>
</svg>
