<svg width="22" height="24" viewBox="0 0 22 24" fill="none" xmlns="http://www.w3.org/2000/svg">
<path fill-rule="evenodd" clip-rule="evenodd" d="M2.58982 1.322L5.4339 0L9.47501 7.89002L6.74993 9.23102C6.21192 10.49 8.90899 15.52 10.047 15.603C10.137 15.545 12.7181 14.275 12.7181 14.275L16.8282 22.2071C16.8282 22.2071 14.0641 23.5611 13.9741 23.6031C6.11292 27.1941 -5.12739 5.34501 2.58982 1.322ZM4.51987 2.59601L3.49685 3.10001C-1.7973 5.86201 7.67396 24.2851 13.1451 21.7861L14.1161 21.3121L11.8451 16.929L10.819 17.429C7.65596 18.976 2.55682 9.21002 5.76391 7.49102L6.77094 6.99402L4.51987 2.59601ZM15.2692 11.115L12.3521 10.245L13.2211 7.32902C13.9671 7.55102 14.6302 8.05902 15.0292 8.79802C15.4292 9.53602 15.4922 10.368 15.2692 11.115ZM14.1561 4.18601C15.7072 4.64801 17.0822 5.70201 17.9122 7.23702C18.7433 8.77302 18.8723 10.5 18.4103 12.05L16.6152 11.515C16.9402 10.424 16.8482 9.20902 16.2632 8.12802C15.6802 7.04702 14.7122 6.30602 13.6201 5.98201L14.1561 4.18601ZM20.8353 5.65601C19.5693 3.31201 17.4712 1.705 15.1062 1L14.5571 2.84101C16.4522 3.40501 18.1322 4.69301 19.1483 6.57002C20.1623 8.44602 20.3203 10.557 19.7563 12.452L21.5963 13C22.3014 10.634 22.1044 7.99902 20.8353 5.65601Z" fill="#FFC300"/>
</svg>
