<svg width="42" height="42" viewBox="0 0 42 42" fill="none" xmlns="http://www.w3.org/2000/svg">
<path fill-rule="evenodd" clip-rule="evenodd" d="M36 8C36 9.96754 34.5794 11.6033 32.708 11.9375V21C32.708 23.6784 30.602 25.8649 27.9557 25.994C27.4533 31.6033 22.7401 36 17 36C10.9249 36 6 31.0751 6 25C6 18.9249 10.9249 14 17 14C22.7346 14 27.4443 18.3883 27.9543 23.99C29.4959 23.8648 30.708 22.5739 30.708 21V11.7867C29.1328 11.2495 28 9.75702 28 8V0H7C3.13401 0 0 3.13401 0 7V35C0 38.866 3.13401 42 7 42H35C38.866 42 42 38.866 42 35V7C42 3.47353 39.3923 0.556119 36 0.0708889V8ZM11 8H7C6.44772 8 6 7.55228 6 7C6 6.44772 6.44772 6 7 6H11C11.5523 6 12 6.44772 12 7C12 7.55228 11.5523 8 11 8ZM17 8H21C21.5523 8 22 7.55228 22 7C22 6.44772 21.5523 6 21 6H17C16.4477 6 16 6.44772 16 7C16 7.55228 16.4477 8 17 8ZM36 34C36 35.1046 35.1046 36 34 36C32.8954 36 32 35.1046 32 34C32 32.8954 32.8954 32 34 32C35.1046 32 36 32.8954 36 34ZM30 0V8C30 9.10457 30.8954 10 32 10C33.1046 10 34 9.10457 34 8V0H30ZM20.8414 24H25.9451C25.4476 19.5 21.6326 16 17 16C12.0294 16 8 20.0294 8 25C8 29.9706 12.0294 34 17 34C21.6326 34 25.4476 30.5 25.9451 26H20.8485C20.4124 27.7367 18.8408 29.0227 16.9688 29.0227C14.7596 29.0227 12.9688 27.2318 12.9688 25.0227C12.9688 22.8136 14.7596 21.0227 16.9688 21.0227C18.8244 21.0227 20.3849 22.2863 20.8368 24L20.8414 24ZM14.9688 25.0227C14.9688 26.1273 15.8642 27.0227 16.9688 27.0227C18.0733 27.0227 18.9688 26.1273 18.9688 25.0227C18.9688 23.9181 18.0733 23.0227 16.9688 23.0227C15.8642 23.0227 14.9688 23.9181 14.9688 25.0227Z" fill="#C86DD7"/>
</svg>
