<svg width="42" height="42" viewBox="0 0 42 42" fill="none" xmlns="http://www.w3.org/2000/svg">
<path fill-rule="evenodd" clip-rule="evenodd" d="M20.9915 0C9.675 0 0.448341 8.94386 0 20.1458C2.61306 19.616 5.05248 20.2263 7.24264 21.9774C10.2307 24.3663 12.2235 24.6059 14.2267 22.8165C14.0714 22.2372 13.9886 21.6283 13.9886 21C13.9886 17.134 17.1239 14 20.9915 14C24.4019 14 27.243 16.437 27.8669 19.6639C31.1306 21.3919 34.1004 21.7605 36.2831 20.0372C38.063 18.6319 39.8453 17.636 41.6303 17.057C39.7843 7.34382 31.2458 0 20.9915 0ZM10.9874 15C10.9874 16.1046 10.0916 17 8.98659 17C7.88157 17 6.98578 16.1046 6.98578 15C6.98578 13.8954 7.88157 13 8.98659 13C10.0916 13 10.9874 13.8954 10.9874 15ZM18.9907 7C18.9907 8.10457 18.0949 9 16.9898 9C15.8848 9 14.989 8.10457 14.989 7C14.989 5.89543 15.8848 5 16.9898 5C18.0949 5 18.9907 5.89543 18.9907 7ZM28.9947 11C28.9947 12.1046 28.0989 13 26.9939 13C25.8889 13 24.9931 12.1046 24.9931 11C24.9931 9.89543 25.8889 9 26.9939 9C28.0989 9 28.9947 9.89543 28.9947 11ZM5.9929 23.5392C4.17276 22.084 2.20989 21.6347 0.0162119 22.192C0.634415 33.2354 9.78898 42 20.9915 42C32.5942 42 42 32.598 42 21C42 20.3506 41.9705 19.7082 41.9128 19.0738C40.4737 19.5902 39.0105 20.4324 37.5233 21.6066C34.8029 23.7544 31.4603 23.5545 27.9332 21.9288C27.4787 25.3557 24.544 28 20.9915 28C18.4918 28 16.298 26.6908 15.0589 24.721C12.4124 26.7443 9.50031 26.3434 5.9929 23.5392Z" fill="#C86DD7"/>
</svg>
