<svg width="42" height="38" viewBox="0 0 42 38" fill="none" xmlns="http://www.w3.org/2000/svg">
<path d="M41.6496 15.652C42.6269 11.4987 41.5597 6.92798 38.448 3.68637C33.8692 -1.08367 26.5124 -1.23882 21.7592 3.30433C21.3332 3.71155 20.6668 3.71155 20.2408 3.30433C15.4876 -1.23882 8.13084 -1.08367 3.55197 3.68637C-1.18399 8.62007 -1.18399 16.6326 3.55197 21.5662L18.2865 36.9159C19.0029 37.6623 19.9639 38.0419 20.9495 37.9963C22.0361 38.0419 22.9971 37.6623 23.7135 36.9159L38.448 21.5662C39.5008 20.4695 40.3196 19.2206 40.9043 17.8873H36.411C36.1081 17.8873 35.8186 17.7616 35.6099 17.5397L30.1165 11.8377L21.9477 24.0951C21.56 24.6769 20.7444 24.7579 20.2522 24.2635L13.9039 17.8873H9.94737C9.33695 17.8873 8.8421 17.3869 8.8421 16.7696C8.8421 16.1524 9.33695 15.652 9.94737 15.652H14.3596C14.6514 15.652 14.9314 15.7687 15.1385 15.9767L20.8616 21.725L29.0525 9.43425C29.4474 8.84168 30.2833 8.77089 30.7701 9.28876L36.8852 15.652H41.6496Z" fill="#C86DD7"/>
</svg>
