<svg width="42" height="42" viewBox="0 0 42 42" fill="none" xmlns="http://www.w3.org/2000/svg">
<path fill-rule="evenodd" clip-rule="evenodd" d="M26 5C26 2.23858 23.7614 0 21 0C18.2386 0 16 2.23858 16 5V6H26V5ZM27.0187 17.9591L35.9675 14.3209C35.626 10.7736 32.6369 8 29 8H13C9.35395 8 6.35896 10.7876 6.02999 14.3477L14.9843 17.9594L20.6811 16.052C20.8871 15.983 21.1099 15.983 21.3158 16.0519L27.0187 17.9591ZM36 22V16.4405L27.2231 19.97C27.0378 20.0166 26.843 20.0092 26.6618 19.9486L20.9988 18.0547L15.3429 19.9485C15.1623 20.0089 14.9683 20.0166 14.7836 19.9706L6 16.4659V22H36ZM42 27C42 25.3431 40.6569 24 39 24H3C1.34315 24 0 25.3431 0 27V31.7215L6.65987 30.0517C6.84036 29.9913 7.03434 29.9837 7.21902 30.0297L14.9613 31.9592L20.6581 30.0517C20.864 29.9828 21.0868 29.9828 21.2928 30.0516L26.9956 31.9588L34.6588 30.0302C34.8432 29.9838 35.0371 29.991 35.2176 30.0508L42 31.7397V27ZM42 33.7966L34.8645 32.0408L27.2 33.9698C27.0147 34.0164 26.82 34.009 26.6388 33.9484L20.9758 32.0545L15.3198 33.9483C15.1393 34.0087 14.9453 34.0164 14.7605 33.9703L7.01816 32.0408L0 33.7793V39C0 40.6569 1.34315 42 3 42H39C40.6569 42 42 40.6569 42 39V33.7966Z" fill="#C86DD7"/>
</svg>
