<svg width="42" height="42" viewBox="0 0 42 42" fill="none" xmlns="http://www.w3.org/2000/svg">
<path fill-rule="evenodd" clip-rule="evenodd" d="M3 18H39C39.5523 18 40 17.5523 40 17C40 7.61116 32.3888 0 23 0H19C9.61116 0 2 7.61116 2 17C2 17.5523 2.44772 18 3 18ZM29 42C33.716 42 37.5848 38.3728 37.9687 33.756C37.3389 33.9153 36.6793 34 36 34H6C5.32066 34 4.6611 33.9153 4.0313 33.756C4.41524 38.3728 8.28403 42 13 42H29ZM27.5858 23.5858L24 20H31.1716L27.5858 23.5858ZM27.5858 26.4142L21.1716 20H6C2.68629 20 0 22.6863 0 26C0 29.3137 2.68629 32 6 32H36C39.3137 32 42 29.3137 42 26C42 22.6863 39.3137 20 36 20H34L27.5858 26.4142Z" fill="white"/>
</svg>
