<svg width="42" height="30" viewBox="0 0 42 30" fill="none" xmlns="http://www.w3.org/2000/svg">
<path fill-rule="evenodd" clip-rule="evenodd" d="M35 6C36.0455 6 37.0494 6.17827 37.9828 6.50607C37.7294 2.87056 34.6999 0 31 0H11C7.30006 0 4.27058 2.87056 4.01716 6.50607C4.95064 6.17827 5.9545 6 7 6H35ZM31 30C34.6999 30 37.7294 27.1294 37.9828 23.4939C37.0494 23.8217 36.0455 24 35 24H7C5.9545 24 4.95064 23.8217 4.01716 23.4939C4.27058 27.1294 7.30006 30 11 30H31ZM7 22C3.13401 22 0 18.866 0 15C0 11.134 3.13401 8 7 8H35C38.866 8 42 11.134 42 15C42 18.866 38.866 22 35 22H7ZM5.85871 17.3984C5.57555 17.8726 4.96161 18.0274 4.48744 17.7443C4.01327 17.4611 3.85843 16.8471 4.14159 16.373L5.5861 13.9541C7.10727 11.4069 9.89049 11.3927 11.4235 13.9285C11.5957 14.2133 11.7479 14.5234 11.8785 14.8539C12.356 16.0626 12.9717 16.2743 13.5127 15.6823C13.6934 15.4845 13.8594 15.2107 13.9936 14.8777L14.0079 14.8422C15.0027 12.3738 17.3725 11.5963 19.0323 13.4491C19.3761 13.8329 19.6613 14.3082 19.8812 14.856C20.3679 16.068 20.9919 16.2744 21.5419 15.6626C21.7229 15.4613 21.8886 15.1849 22.0224 14.8502C23.005 12.3918 25.3598 11.6038 27.0173 13.4387C27.3653 13.8241 27.6533 14.3033 27.8728 14.8521C28.3567 16.062 28.9776 16.2694 29.5247 15.6634C29.706 15.4625 29.8721 15.1859 30.0061 14.8505C31.165 11.949 33.8785 11.0396 35.8023 13.1681C36.002 13.389 36.1857 13.637 36.3518 13.9087L37.8533 16.364C38.1414 16.8351 37.993 17.4507 37.5219 17.7388C37.0507 18.0269 36.4352 17.8786 36.147 17.4074L34.6455 14.9521C34.5427 14.7839 34.4329 14.6357 34.3186 14.5092C33.5051 13.6092 32.5242 13.9379 31.8634 15.5923C31.6453 16.1384 31.3574 16.6179 31.0093 17.0035C29.3529 18.8385 26.9986 18.052 26.0146 15.5917C25.8805 15.2565 25.7144 14.9801 25.5331 14.7793C24.9855 14.1731 24.3637 14.3812 23.8795 15.5925C23.6621 16.1366 23.3755 16.6146 23.0293 16.9997C21.373 18.842 19.0131 18.0612 18.0224 15.594C17.8885 15.2608 17.7232 14.9852 17.5426 14.7836C16.9863 14.1625 16.3546 14.3698 15.863 15.5897L15.8486 15.6253C15.629 16.1704 15.3392 16.6482 14.9891 17.0314C13.3294 18.8478 10.988 18.0428 10.0184 15.5888C9.92801 15.36 9.82502 15.1502 9.71192 14.9632C8.96084 13.7208 8.05217 13.7254 7.30322 14.9795L5.85871 17.3984Z" fill="white"/>
</svg>
