<svg width="41" height="39" viewBox="0 0 41 39" fill="none" xmlns="http://www.w3.org/2000/svg">
<path fill-rule="evenodd" clip-rule="evenodd" d="M27.9904 20.2597C23.4555 20.2597 20.986 18.2366 20.986 13.1688C20.986 9.52201 23.0867 5.26857 27.2293 0.35534C27.6288 -0.118446 28.352 -0.118446 28.7515 0.35534C32.894 5.26857 34.9948 9.52201 34.9948 13.1688C34.9948 18.2366 32.5253 20.2597 27.9904 20.2597ZM2.00127 16.7143H1.50095C0.671999 16.7143 0 16.034 0 15.1948C0 14.3556 0.671999 13.6753 1.50095 13.6753H3.50222C4.33117 13.6753 5.00317 14.3556 5.00317 15.1948V19.5592L7.27539 17.5287C8.80423 16.1187 11.0325 15.8063 12.8823 16.7426L18.3782 19.5264C20.0327 20.2442 20.7991 22.1839 20.09 23.8588C19.9744 24.1319 19.8255 24.3827 19.6496 24.6077L23.9413 25.4772L36.2408 21.6225C38.2101 21.0389 40.2738 22.1818 40.8503 24.1754C41.1509 25.2146 40.9944 26.3345 40.4209 27.2486C39.9585 27.9856 39.5654 28.4957 39.1988 28.8049C39.1028 28.8859 38.9653 29.0095 38.7834 29.1731C37.4924 30.3339 33.9641 33.5065 27.1326 37.7295C25.8423 38.5272 24.2648 38.6914 22.8412 38.1762L12.5204 34.4416H5.00317V37.4805C5.00317 38.3197 4.33117 39 3.50222 39H1.50095C0.671999 39 0 38.3197 0 37.4805C0 36.6413 0.671999 35.961 1.50095 35.961H2.00127V16.7143Z" fill="white"/>
</svg>
