<svg width="42" height="38" viewBox="0 0 42 38" fill="none" xmlns="http://www.w3.org/2000/svg">
<path fill-rule="evenodd" clip-rule="evenodd" d="M0 3V20H41.9992C41.9763 19.0236 41.4791 18.1176 40.6641 17.5742L35.9966 14.4626C35.8518 14.366 35.7347 14.2334 35.6569 14.0777L35.6243 14H22V0H3C1.34315 0 0 1.34315 0 3ZM12 7V10H15C15.5523 10 16 10.4477 16 11C16 11.5523 15.5523 12 15 12H12V15C12 15.5523 11.5523 16 11 16C10.4477 16 10 15.5523 10 15V12H7C6.44772 12 6 11.5523 6 11C6 10.4477 6.44772 10 7 10H10V7C10 6.44772 10.4477 6 11 6C11.5523 6 12 6.44772 12 7ZM34.7857 12H24V0H27.7639C28.9002 0 29.939 0.642007 30.4749 1.71875L34.7857 12ZM0 22H42V29C42 30.6569 40.6569 32 39 32H37.9291C37.4439 28.6077 34.5265 26 31 26C27.4735 26 24.5561 28.6077 24.0709 32H17.9291C17.4439 28.6077 14.5265 26 11 26C7.47353 26 4.55612 28.6077 4.07089 32H3C1.34315 32 0 30.6569 0 29V22ZM11 38C8.23858 38 6 35.7614 6 33C6 30.2386 8.23858 28 11 28C13.7614 28 16 30.2386 16 33C16 35.7614 13.7614 38 11 38ZM26 33C26 35.7614 28.2386 38 31 38C33.7614 38 36 35.7614 36 33C36 30.2386 33.7614 28 31 28C28.2386 28 26 30.2386 26 33Z" fill="white"/>
</svg>
