<svg width="21" height="18" viewBox="0 0 21 18" fill="none" xmlns="http://www.w3.org/2000/svg">
<path fill-rule="evenodd" clip-rule="evenodd" d="M14 10V3H13.9646C13.7219 1.30385 12.2632 0 10.5 0H3.5C1.567 0 0 1.567 0 3.5V10V12V12.5C0 13.3284 0.671573 14 1.5 14H2.05001C2.01722 13.8384 2 13.6712 2 13.5C2 12.9372 2.18597 12.4178 2.49982 12H6.50018C6.81403 12.4178 7 12.9372 7 13.5C7 13.6712 6.98278 13.8384 6.94999 14H14.05C14.0172 13.8384 14 13.6712 14 13.5C14 12.1193 15.1193 11 16.5 11C17.8807 11 19 12.1193 19 13.5C19 13.6712 18.9828 13.8384 18.95 14H19.5C20.3284 14 21 13.3284 21 12.5V10H14ZM4.5 15C5.29344 15 5.94299 15.616 5.99644 16.3959C5.98934 16.4295 5.9856 16.4643 5.9856 16.5C5.9856 16.5357 5.98934 16.5705 5.99644 16.6041C5.94299 17.384 5.29344 18 4.5 18C3.67157 18 3 17.3284 3 16.5C3 15.6716 3.67157 15 4.5 15ZM17.9964 16.3959C17.943 15.616 17.2934 15 16.5 15C15.6716 15 15 15.6716 15 16.5C15 17.3284 15.6716 18 16.5 18C17.2934 18 17.943 17.384 17.9964 16.6041C17.9893 16.5705 17.9856 16.5357 17.9856 16.5C17.9856 16.4643 17.9893 16.4295 17.9964 16.3959ZM15.5327 0H15V5H20.8452C20.7213 4.59734 20.5249 4.2176 20.2627 3.88053L18.2955 1.35121C17.6324 0.498655 16.6128 0 15.5327 0ZM15 9V6H20.9999L21 6.02932V9H15Z" fill="#C86DD7"/>
</svg>
