<svg width="21" height="21" viewBox="0 0 21 21" fill="none" xmlns="http://www.w3.org/2000/svg">
<path fill-rule="evenodd" clip-rule="evenodd" d="M1.5 0H2V0.0853529C2.15639 0.0300771 2.32468 0 2.5 0H18.5C18.6753 0 18.8436 0.0300771 19 0.085353V0H19.5C20.3284 0 21 0.671573 21 1.5V5.5C21 6.79695 20.0124 7.86322 18.7482 7.98783C18.7933 7.85916 18.8327 7.72783 18.8661 7.59412C18.4734 7.85079 18.0041 8 17.5 8H15V6.5C15 6.22386 14.7761 6 14.5 6C14.2239 6 14 6.22386 14 6.5V8H7V6.5C7 6.22386 6.77614 6 6.5 6C6.22386 6 6 6.22386 6 6.5V8H3.5C2.99588 8 2.5266 7.85079 2.13394 7.59411C2.16734 7.72782 2.20672 7.85916 2.25178 7.98783C0.987595 7.86322 0 6.79695 0 5.5V1.5C0 0.671573 0.671573 0 1.5 0ZM17.5 9H15V10.5C15 10.7761 14.7761 11 14.5 11C14.2239 11 14 10.7761 14 10.5V9H7V10.5C7 10.7761 6.77614 11 6.5 11C6.22386 11 6 10.7761 6 10.5V9H3.5C3.33024 9 3.1633 8.98791 3 8.96456V17.5C3 19.433 4.567 21 6.5 21H14.5C16.433 21 18 19.433 18 17.5V8.96456C17.8367 8.98791 17.6698 9 17.5 9ZM6.5 13C6.22386 13 6 13.2239 6 13.5V15.5C6 16.8807 7.11929 18 8.5 18H12.5C13.8807 18 15 16.8807 15 15.5V13.5C15 13.2239 14.7761 13 14.5 13H6.5Z" fill="#C86DD7"/>
</svg>
