<svg width="20" height="20" viewBox="0 0 20 20" fill="none" xmlns="http://www.w3.org/2000/svg">
<path fill-rule="evenodd" clip-rule="evenodd" d="M1.80302 4.61628C1.67386 4.41823 1.70108 4.15678 1.86827 3.98959L3.98959 1.86827C4.15678 1.70108 4.41823 1.67386 4.61628 1.80302L6.30359 2.90344C6.71727 2.68755 7.14949 2.50816 7.59584 2.36769L8.01073 0.396995C8.05943 0.165623 8.26356 0 8.5 0H11.5C11.7364 0 11.9406 0.165623 11.9893 0.396995L12.4042 2.36769C12.8505 2.50816 13.2827 2.68755 13.6964 2.90344L15.3837 1.80302C15.5818 1.67386 15.8432 1.70108 16.0104 1.86827L18.1317 3.98959C18.2989 4.15678 18.3261 4.41823 18.197 4.61628L17.0966 6.30359C17.3125 6.71727 17.4918 7.14949 17.6323 7.59584L19.603 8.01073C19.8344 8.05943 20 8.26356 20 8.5V11.5C20 11.7364 19.8344 11.9406 19.603 11.9893L17.6323 12.4042C17.4918 12.8505 17.3125 13.2827 17.0966 13.6964L18.197 15.3837C18.3261 15.5818 18.2989 15.8432 18.1317 16.0104L16.0104 18.1317C15.8432 18.2989 15.5818 18.3261 15.3837 18.197L13.6964 17.0966C13.2827 17.3125 12.8505 17.4918 12.4042 17.6323L11.9893 19.603C11.9406 19.8344 11.7364 20 11.5 20H8.5C8.26356 20 8.05943 19.8344 8.01073 19.603L7.59584 17.6323C7.14949 17.4918 6.71727 17.3125 6.30359 17.0966L4.61628 18.197C4.41823 18.3261 4.15678 18.2989 3.98959 18.1317L1.86827 16.0104C1.70108 15.8432 1.67386 15.5818 1.80302 15.3837L2.90344 13.6964C2.68755 13.2827 2.50816 12.8505 2.36769 12.4042L0.396995 11.9893C0.165623 11.9406 0 11.7364 0 11.5V8.5C0 8.26356 0.165623 8.05943 0.396995 8.01073L2.36769 7.59584C2.50816 7.14949 2.68755 6.71727 2.90344 6.30359L1.80302 4.61628ZM10 14C7.79086 14 6 12.2091 6 10C6 7.79086 7.79086 6 10 6C12.2091 6 14 7.79086 14 10C14 12.2091 12.2091 14 10 14ZM13 10C13 11.6569 11.6569 13 10 13C8.34315 13 7 11.6569 7 10C7 8.34315 8.34315 7 10 7C11.6569 7 13 8.34315 13 10Z" fill="#C86DD7"/>
</svg>
